<?xml version="1.0" encoding="UTF-8" standalone="no"?><svg xmlns:svg="http://www.w3.org/2000/svg" xmlns="http://www.w3.org/2000/svg" version="1.1" style="overflow:visible" viewBox="-250 -250 500 500" height="2000px" width="2000px"><rect fill-opacity="0" fill="rgb(0,0,0)" height="500" width="500" y="-250" x="-250" /><svg version="1.1" y="-250" x="-250" viewBox="-250 -250 500 500" height="500px" width="500px" style="overflow:visible"><g transform="rotate(0,0,0)" stroke-linejoin="round" fill="#fff"><path stroke-linecap="butt" stroke-linejoin="round" stroke="none" fill="rgb(218,151,147)" d="m67.3908-12.93418c-16.73564 19.34505-12.46455 38.6901 0 58.03515c5.41547-2.41483 10.21733-5.11688 14.30077-8.054691c2.81595-16.660151 9.68822-33.32031 0-49.98046z" /><path stroke-linecap="butt" stroke-linejoin="round" stroke="none" fill="rgb(218,151,147)" d="m32.355629-12.93418c-18.59399 27.75598-10.20217 48.1522 0 68.05468c5.6208-0.91745 10.99723-2.07083 16.0879-3.42773c11.22458-20.29514 12.75506-41.6674 0-64.62695z" /><path stroke-linecap="butt" stroke-linejoin="round" stroke="none" fill="rgb(218,151,147)" d="m-81.69124-12.93418c-7.10419 15.77213-13.76091 31.6002 0 49.98046c4.08335 2.93764 8.88552 5.63998 14.30078 8.05469c18.43273-15.99364 10.41168-36.79707 0-58.03515z" /><path stroke-linecap="butt" stroke-linejoin="round" stroke="none" fill="rgb(218,151,147)" d="m-48.4432-12.93418c-10.22301 21.54232-11.10281 43.08463 0 64.626949c5.09115 1.35702 10.46656 2.51024 16.08789 3.42773c9.3563-22.68489 14.41094-45.36979 0-68.05468z" /><path stroke-linecap="butt" stroke-linejoin="round" stroke="none" fill="rgb(218,151,147)" d="m-9.11702-12.93418c-27.16267 23.47005-7.82606 46.9401 0 70.41015c3.00294 0.1292 6.04105 0.20313 9.11718 0.20313c3.07619-0.00001 6.11422-0.0739 9.11719-0.20313c7.99535-23.47005 20.16972-46.9401 0-70.41015z" /><path stroke-linecap="butt" stroke-linejoin="round" stroke="none" fill="rgb(218,71,62)" d="m-96.99984-12.93418v25.86718c-0.00032 8.88264 5.63317 17.15262 15.3086 24.11328v-49.98046h-15.3086z" /><path stroke-linecap="butt" stroke-linejoin="round" stroke="none" fill="rgb(218,71,62)" d="m-67.39046-12.93418v58.03515c5.68832 2.53647 12.05475 4.74855 18.94726 6.58789v-64.62304h-18.94726z" /><path stroke-linecap="butt" stroke-linejoin="round" stroke="none" fill="rgb(218,71,62)" d="m-32.355311-12.93418v68.05668c7.37553 1.20555 15.16431 2.00683 23.23829 2.35547v-70.41215h-23.23829z" /><path stroke-linecap="butt" stroke-linejoin="round" stroke="none" fill="rgb(218,71,62)" d="m9.11735-12.93418v70.41015c8.07722-0.34751 15.85869-1.161 23.23828-2.36523v-68.04492h-23.23828z" /><path stroke-linecap="butt" stroke-linejoin="round" stroke="none" fill="rgb(218,71,62)" d="m48.44353-12.93418v64.626949c6.89933-1.8382 13.25497-4.06109 18.94727-6.59766v-58.02929h-18.94727z" /><path stroke-linecap="butt" stroke-linejoin="round" stroke="none" fill="rgb(218,71,62)" d="m81.69157-12.93418v49.98046c0.00037 0.003-0.00036 0.005 0 0.008c9.68467-6.95902 15.30859-15.23553 15.30859-24.12109v-25.86718h-15.30859z" /><path stroke-linecap="butt" stroke-linejoin="round" stroke-width="8" stroke-opacity="1" stroke="rgb(68,68,68)" fill="none" d="m-97.00017-12.93473v25.86712c-0.0009 24.71295 43.42733 44.74704 97 44.74704c53.57358-0.00008 97.00001-20.03409 97.00001-44.74704v-25.86712z" /><path stroke-linecap="butt" stroke-linejoin="round" stroke-width="8" stroke-opacity="1" stroke="rgb(68,68,68)" fill="rgb(218,71,62)" d="m97.00017-12.93418a97 44.745238 0 0 1-97.00001 44.74524a97 44.745238 0 0 1-97-44.74524a97 44.745238 0 0 1 97-44.74524a97 44.745238 0 0 1 97.00001 44.74524z" /><path stroke-linecap="butt" stroke-linejoin="round" stroke="none" fill="rgb(218,151,147)" d="m74.58359-15.73625a74.583419 28.087984 0 0 1-74.58343 28.08798a74.583419 28.087984 0 0 1-74.58341-28.08798a74.583419 28.087984 0 0 1 74.58341-28.08799a74.583419 28.087984 0 0 1 74.58343 28.08799z" /></g></svg></svg>